<svg xmlns="http://www.w3.org/2000/svg" width="50" height="50" viewBox="0 0 68 56">
 <g id="Group_358" data-name="Group 358" transform="translate(0.479 -0.237)">
   <rect id="Rectangle_1098" data-name="Rectangle 1098" width="68" height="56" rx="14" transform="translate(-0.479 0.237)" fill="#073a93"/>
   <g id="list-24px" transform="translate(17.566 8.506)">
     <g id="Group_352" data-name="Group 352">
       <path id="Path_241" data-name="Path 241" d="M0,0H27.692V29.538H0Z" fill="none"/>
       <path id="Path_242" data-name="Path 242" d="M0,0H27.692V29.538H0Z" fill="none" opacity="0.87"/>
     </g>
     <path id="Path_243" data-name="Path 243" d="M4.333,18.077c.733,0,1.333-.831,1.333-1.846s-.6-1.846-1.333-1.846S3,15.215,3,16.231,3.6,18.077,4.333,18.077Zm0,7.384c.733,0,1.333-.831,1.333-1.846s-.6-1.846-1.333-1.846S3,22.6,3,23.615s.6,1.846,1.333,1.846Zm0-14.769c.733,0,1.333-.831,1.333-1.846S5.066,7,4.333,7,3,7.831,3,8.846s.6,1.846,1.333,1.846Zm5.333,7.384h16c.733,0,1.333-.831,1.333-1.846s-.6-1.846-1.333-1.846h-16c-.733,0-1.333.831-1.333,1.846s.6,1.847,1.333,1.847Zm0,7.384h16c.733,0,1.333-.831,1.333-1.846s-.6-1.846-1.333-1.846h-16c-.733,0-1.333.831-1.333,1.846s.6,1.847,1.333,1.847ZM8.333,8.846c0,1.015.6,1.846,1.333,1.846h16c.734,0,1.334-.83,1.334-1.846S26.4,7,25.666,7h-16C8.93,7,8.333,7.831,8.333,8.846Zm-4,9.231c.733,0,1.333-.831,1.333-1.846s-.6-1.846-1.333-1.846S3,15.215,3,16.231,3.6,18.077,4.333,18.077Zm0,7.384c.733,0,1.333-.831,1.333-1.846s-.6-1.846-1.333-1.846S3,22.6,3,23.615s.6,1.846,1.333,1.846Zm0-14.769c.733,0,1.333-.831,1.333-1.846S5.066,7,4.333,7,3,7.831,3,8.846s.6,1.846,1.333,1.846Zm5.333,7.384h16c.733,0,1.333-.831,1.333-1.846s-.6-1.846-1.333-1.846h-16c-.733,0-1.333.831-1.333,1.846s.6,1.847,1.333,1.847Zm0,7.384h16c.733,0,1.333-.831,1.333-1.846s-.6-1.846-1.333-1.846h-16c-.733,0-1.333.831-1.333,1.846s.6,1.847,1.333,1.847ZM8.333,8.846c0,1.015.6,1.846,1.333,1.846h16c.734,0,1.334-.83,1.334-1.846S26.4,7,25.666,7h-16C8.93,7,8.333,7.831,8.333,8.846Z" transform="translate(-0.231 3.153)" fill="#fff"/>
   </g>
 </g>
</svg>